<svg width="200" height="200" viewBox="0 0 200 200" xmlns="http://www.w3.org/2000/svg">
  <defs>
    <!-- 그라데이션 정의 -->
    <radialGradient id="bodyGrad" cx="0.3" cy="0.3">
      <stop offset="0%" stop-color="#8d6e63"/>
      <stop offset="50%" stop-color="#6d4c41"/>
      <stop offset="100%" stop-color="#5d4037"/>
    </radialGradient>
    <radialGradient id="headGrad" cx="0.3" cy="0.2">
      <stop offset="0%" stop-color="#8d6e63"/>
      <stop offset="70%" stop-color="#6d4c41"/>
      <stop offset="100%" stop-color="#5d4037"/>
    </radialGradient>
    <radialGradient id="earGrad" cx="0.4" cy="0.3">
      <stop offset="0%" stop-color="#8d6e63"/>
      <stop offset="100%" stop-color="#5d4037"/>
    </radialGradient>
  </defs>

  <!-- 고양이 몸통 (실제 고양이 비율) -->
  <ellipse cx="100" cy="145" rx="45" ry="35" fill="url(#bodyGrad)"/>

  <!-- 고양이 머리 -->
  <ellipse cx="100" cy="80" rx="42" ry="38" fill="url(#headGrad)"/>

  <!-- 고양이 귀 (삼각형, 실제 고양이처럼) -->
  <polygon points="70,55 78,25 90,50" fill="url(#earGrad)"/>
  <polygon points="110,50 122,25 130,55" fill="url(#earGrad)"/>
  <!-- 귀 안쪽 -->
  <polygon points="74,48 79,35 85,45" fill="#d7ccc8"/>
  <polygon points="115,45 121,35 126,48" fill="#d7ccc8"/>

  <!-- 고양이 눈 (아몬드 모양, 현실적) -->
  <ellipse cx="88" cy="75" rx="12" ry="8" fill="#4caf50" stroke="#2e7d32" stroke-width="1"/>
  <ellipse cx="112" cy="75" rx="12" ry="8" fill="#4caf50" stroke="#2e7d32" stroke-width="1"/>
  <!-- 동공 (세로 타원) -->
  <ellipse cx="88" cy="75" rx="3" ry="6" fill="#1b5e20"/>
  <ellipse cx="112" cy="75" rx="3" ry="6" fill="#1b5e20"/>
  <!-- 작은 반사광 -->
  <ellipse cx="90" cy="72" rx="1.5" ry="2" fill="#ffffff"/>
  <ellipse cx="114" cy="72" rx="1.5" ry="2" fill="#ffffff"/>

  <!-- 고양이 코 (삼각형, 실제 형태) -->
  <polygon points="100,88 96,94 104,94" fill="#ad1457"/>
  <!-- 코 하이라이트 -->
  <polygon points="100,89 98,91 102,91" fill="#e91e63" opacity="0.7"/>

  <!-- 고양이 입 (Y자 모양) -->
  <line x1="100" y1="94" x2="100" y2="99" stroke="#4e342e" stroke-width="1.5"/>
  <path d="M 100 99 Q 92 105 88 102" stroke="#4e342e" stroke-width="1.5" fill="none"/>
  <path d="M 100 99 Q 108 105 112 102" stroke="#4e342e" stroke-width="1.5" fill="none"/>

  <!-- 고양이 수염 (더 길고 자연스럽게) -->
  <line x1="40" y1="78" x2="76" y2="80" stroke="#4e342e" stroke-width="1" opacity="0.8"/>
  <line x1="42" y1="85" x2="76" y2="85" stroke="#4e342e" stroke-width="1" opacity="0.8"/>
  <line x1="44" y1="92" x2="76" y2="90" stroke="#4e342e" stroke-width="1" opacity="0.8"/>
  <line x1="124" y1="80" x2="160" y2="78" stroke="#4e342e" stroke-width="1" opacity="0.8"/>
  <line x1="124" y1="85" x2="158" y2="85" stroke="#4e342e" stroke-width="1" opacity="0.8"/>
  <line x1="124" y1="90" x2="156" y2="92" stroke="#4e342e" stroke-width="1" opacity="0.8"/>

  <!-- 고양이 앞발 -->
  <ellipse cx="78" cy="168" rx="12" ry="22" fill="url(#bodyGrad)"/>
  <ellipse cx="122" cy="168" rx="12" ry="22" fill="url(#bodyGrad)"/>

  <!-- 발가락 패드 (실제처럼) -->
  <ellipse cx="78" cy="182" rx="8" ry="4" fill="#4e342e"/>
  <ellipse cx="122" cy="182" rx="8" ry="4" fill="#4e342e"/>
  <!-- 작은 발가락 패드들 -->
  <circle cx="74" cy="178" r="2" fill="#4e342e"/>
  <circle cx="82" cy="178" r="2" fill="#4e342e"/>
  <circle cx="118" cy="178" r="2" fill="#4e342e"/>
  <circle cx="126" cy="178" r="2" fill="#4e342e"/>

  <!-- 고양이 꼬리 (더 자연스러운 곡선) -->
  <path d="M 55 140 Q 30 125 25 105 Q 22 85 35 75 Q 50 70 65 80"
        stroke="url(#bodyGrad)" stroke-width="14" fill="none" stroke-linecap="round"/>

  <!-- 털 무늬/그림자 효과 -->
  <ellipse cx="100" cy="148" rx="20" ry="28" fill="#5d4037" opacity="0.3"/>
  <!-- 이마 무늬 -->
  <path d="M 85 65 Q 100 60 115 65 Q 108 70 100 68 Q 92 70 85 65" fill="#5d4037" opacity="0.4"/>

  <!-- 목 부분 -->
  <ellipse cx="100" cy="110" rx="35" ry="12" fill="url(#bodyGrad)"/>

  <!-- 뒷발 (살짝 보이는) -->
  <ellipse cx="85" cy="175" rx="8" ry="15" fill="url(#bodyGrad)" opacity="0.6"/>
  <ellipse cx="115" cy="175" rx="8" ry="15" fill="url(#bodyGrad)" opacity="0.6"/>
</svg>